<?xml version="1.0" standalone="no"?><!DOCTYPE svg PUBLIC "-//W3C//DTD SVG 1.1//EN" "http://www.w3.org/Graphics/SVG/1.1/DTD/svg11.dtd"><svg t="1587000649249" class="icon" viewBox="0 0 1024 1024" version="1.1" xmlns="http://www.w3.org/2000/svg" p-id="7466" xmlns:xlink="http://www.w3.org/1999/xlink" width="16" height="16"><defs><style type="text/css"></style></defs><path d="M512 512m-501.76 0a501.76 501.76 0 1 0 1003.52 0 501.76 501.76 0 1 0-1003.52 0Z" fill="#8CEEF9" p-id="7467"></path><path d="M316.2112 718.2336v-156.672c0-14.5408-11.8784-26.4192-26.4192-26.4192-14.5408 0-26.4192 11.8784-26.4192 26.4192v156.672h52.8384zM316.2112 760.0128v-198.4512c0-14.5408 11.8784-26.4192 26.4192-26.4192 14.5408 0 26.4192 11.8784 26.4192 26.4192v198.4512h-52.8384z" fill="#FFC5B3" p-id="7468"></path><path d="M316.2112 728.4736h-53.0432c-5.7344 0-10.24-4.5056-10.24-10.24v-156.672c0-20.2752 16.384-36.6592 36.6592-36.6592 20.2752 0 36.6592 16.384 36.6592 36.6592v156.672c0.2048 5.7344-4.3008 10.24-10.0352 10.24z m-42.5984-20.48h32.5632v-146.432c0-9.0112-7.3728-16.1792-16.1792-16.1792s-16.1792 7.3728-16.1792 16.1792v146.432z" fill="#1C1D21" p-id="7469"></path><path d="M369.0496 770.2528h-53.0432c-5.7344 0-10.24-4.5056-10.24-10.24v-198.4512c0-20.2752 16.384-36.6592 36.6592-36.6592 20.2752 0 36.6592 16.384 36.6592 36.6592v198.4512c0.2048 5.7344-4.3008 10.24-10.0352 10.24z m-42.5984-20.48h32.5632v-188.2112c0-9.0112-7.3728-16.1792-16.1792-16.1792s-16.1792 7.3728-16.1792 16.1792v188.2112z" fill="#1C1D21" p-id="7470"></path><path d="M444.8256 820.0192L292.864 699.8016c-18.6368-14.7456-29.4912-37.2736-29.4912-61.0304v-77.2096c0-14.5408-11.8784-26.4192-26.4192-26.4192-14.5408 0-26.4192 11.8784-26.4192 26.4192v148.0704c0 20.6848 8.192 40.3456 22.7328 54.8864l107.1104 107.1104c14.5408 14.5408 22.7328 34.4064 22.7328 54.8864V991.232c35.6352 11.0592 73.1136 18.2272 111.616 21.0944l-0.4096-131.6864c0-23.552-11.0592-46.08-29.4912-60.6208z" fill="#FFC5B3" p-id="7471"></path><path d="M474.7264 1022.5664h-0.8192c-38.7072-2.8672-77.2096-10.0352-114.0736-21.504-4.3008-1.2288-7.168-5.3248-7.168-9.8304v-64.512c0-18.0224-6.9632-35.0208-19.8656-47.7184l-107.1104-107.1104c-16.5888-16.5888-25.8048-38.7072-25.8048-62.2592v-148.0704c0-20.2752 16.384-36.6592 36.6592-36.6592s36.6592 16.384 36.6592 36.6592v77.2096c0 20.6848 9.4208 40.1408 25.6 52.8384l151.9616 120.2176c21.0944 16.7936 33.3824 41.7792 33.3824 68.608l0.4096 131.6864c0 2.8672-1.2288 5.5296-3.2768 7.5776-1.4336 2.048-3.8912 2.8672-6.5536 2.8672z m-101.376-38.912c29.696 8.6016 60.2112 14.5408 91.136 17.6128l-0.4096-120.6272c0-20.6848-9.4208-39.936-25.6-52.6336l-151.9616-120.2176c-21.2992-16.7936-33.3824-41.984-33.3824-69.0176v-77.2096c0-9.0112-7.3728-16.1792-16.1792-16.1792s-16.1792 7.3728-16.1792 16.1792v148.0704c0 18.0224 6.9632 35.0208 19.8656 47.7184l107.1104 107.1104c16.5888 16.5888 25.8048 38.7072 25.8048 62.2592v56.9344z" fill="#1C1D21" p-id="7472"></path><path d="M734.208 535.1424c-14.5408 0-26.4192 11.8784-26.4192 26.4192v156.672h53.0432v-156.672c-0.2048-14.5408-12.0832-26.4192-26.624-26.4192z" fill="#FFC5B3" p-id="7473"></path><path d="M681.3696 535.1424c-14.5408 0-26.4192 11.8784-26.4192 26.4192v198.4512l53.0432-4.3008v-194.1504c-0.2048-14.5408-11.8784-26.4192-26.624-26.4192z" fill="#FFC5B3" p-id="7474"></path><path d="M760.6272 728.4736h-53.0432c-5.7344 0-10.24-4.5056-10.24-10.24v-156.672c0-20.2752 16.384-36.6592 36.6592-36.6592 20.2752 0 36.6592 16.384 36.6592 36.6592v156.672c0.2048 5.7344-4.3008 10.24-10.0352 10.24z m-42.5984-20.48h32.5632v-146.432c0-9.0112-7.3728-16.1792-16.1792-16.1792s-16.1792 7.3728-16.1792 16.1792v146.432z" fill="#1C1D21" p-id="7475"></path><path d="M654.9504 770.2528c-2.6624 0-5.12-1.024-6.9632-2.6624-2.048-1.8432-3.2768-4.7104-3.2768-7.5776v-198.4512c0-20.2752 16.384-36.6592 36.6592-36.6592s36.6592 16.384 36.6592 36.6592V755.712c0 5.3248-4.096 9.8304-9.4208 10.24l-53.0432 4.3008h-0.6144z m52.8384-14.5408z m-26.4192-210.3296c-9.0112 0-16.1792 7.3728-16.1792 16.1792v187.392l32.5632-2.6624v-184.7296c-0.2048-9.0112-7.3728-16.1792-16.384-16.1792z" fill="#1C1D21" p-id="7476"></path><path d="M683.6224 871.6288l107.1104-107.1104c14.5408-14.5408 22.7328-34.4064 22.7328-54.8864v-148.0704c0-14.5408-11.8784-26.4192-26.4192-26.4192-14.5408 0-26.4192 11.8784-26.4192 26.4192v77.2096c0 23.7568-10.8544 46.2848-29.4912 61.0304l-151.9616 120.2176c-18.6368 14.7456-29.4912 37.0688-29.4912 60.6208l-0.4096 131.6864c38.7072-2.8672 75.9808-10.0352 111.616-21.0944v-64.512c0-20.6848 8.192-40.3456 22.7328-55.0912z" fill="#FFC5B3" p-id="7477"></path><path d="M549.2736 1022.5664c-2.6624 0-5.12-1.024-6.9632-2.6624-2.048-1.8432-3.2768-4.7104-3.2768-7.5776l0.4096-131.6864c0-27.0336 12.288-52.0192 33.3824-68.608l151.9616-120.2176c16.1792-12.9024 25.6-32.1536 25.6-52.8384v-77.2096c0-20.2752 16.384-36.6592 36.6592-36.6592s36.6592 16.384 36.6592 36.6592v148.0704c0 23.552-9.216 45.6704-25.8048 62.2592l-107.1104 107.1104c-12.6976 12.6976-19.8656 29.696-19.8656 47.7184V991.232c0 4.5056-2.8672 8.3968-7.168 9.8304-36.864 11.4688-75.1616 18.6368-114.0736 21.504h-0.4096z m237.7728-477.184c-9.0112 0-16.1792 7.3728-16.1792 16.1792v77.2096c0 27.0336-12.0832 52.224-33.3824 69.0176l-151.9616 120.2176c-16.1792 12.9024-25.6 31.9488-25.6 52.6336l-0.4096 120.6272c30.9248-3.072 61.44-8.8064 91.136-17.6128v-56.9344c0-23.552 9.216-45.6704 25.8048-62.2592l107.1104-107.1104c12.6976-12.6976 19.8656-29.696 19.8656-47.7184v-148.0704c0-9.0112-7.3728-16.1792-16.384-16.1792zM660.8896 991.232z" fill="#1C1D21" p-id="7478"></path><path d="M512 1024c-136.8064 0-265.4208-53.248-362.0864-149.9136C53.248 777.4208 0 648.8064 0 512S53.248 246.5792 149.9136 149.9136C246.5792 53.248 375.1936 0 512 0s265.4208 53.248 362.0864 149.9136C970.752 246.5792 1024 375.1936 1024 512s-53.248 265.4208-149.9136 362.0864C777.4208 970.752 648.8064 1024 512 1024z m0-1003.52C241.0496 20.48 20.48 241.0496 20.48 512s220.5696 491.52 491.52 491.52 491.52-220.5696 491.52-491.52S782.9504 20.48 512 20.48z" fill="#1C1D21" p-id="7479"></path><path d="M512 409.8048m-280.3712 0a280.3712 280.3712 0 1 0 560.7424 0 280.3712 280.3712 0 1 0-560.7424 0Z" fill="#508DEF" p-id="7480"></path><path d="M645.9392 409.8048s-0.8192 81.7152-20.2752 148.2752c0 0 65.9456 25.8048 80.4864 54.0672 0 0 92.9792-81.1008 77.824-202.3424h-138.0352z" fill="#0ABFB2" p-id="7481"></path><path d="M271.9744 274.6368c-1.8432 0-3.6864-0.4096-5.3248-1.4336-4.9152-2.8672-6.3488-9.216-3.4816-14.1312 0.8192-1.4336 1.6384-2.8672 2.6624-4.096 3.072-4.7104 9.4208-6.144 14.1312-3.2768 4.7104 3.072 6.144 9.4208 3.2768 14.1312-0.8192 1.2288-1.6384 2.6624-2.4576 3.8912-1.8432 3.072-5.3248 4.9152-8.8064 4.9152zM242.2784 342.8352c-1.024 0-1.8432-0.2048-2.8672-0.4096-5.5296-1.6384-8.6016-7.168-6.9632-12.6976 3.2768-11.6736 7.3728-23.3472 12.288-34.4064 2.2528-5.12 8.192-7.5776 13.5168-5.3248 5.12 2.2528 7.5776 8.192 5.3248 13.5168-4.5056 10.4448-8.192 21.0944-11.4688 32.1536-1.2288 4.3008-5.3248 7.168-9.8304 7.168z" fill="#1C1D21" p-id="7482"></path><path d="M512 700.416c-160.3584 0-290.6112-130.4576-290.6112-290.6112 0-12.0832 0.8192-24.3712 2.2528-36.4544 0.6144-5.5296 5.7344-9.6256 11.4688-8.8064 5.5296 0.6144 9.6256 5.7344 8.8064 11.4688-1.4336 11.0592-2.048 22.528-2.048 33.792 0 149.0944 121.2416 270.1312 270.1312 270.1312s270.1312-121.2416 270.1312-270.1312c0-149.0944-121.2416-270.1312-270.1312-270.1312-81.3056 0-157.4912 36.0448-209.1008 99.1232-3.6864 4.3008-10.0352 4.9152-14.336 1.4336-4.3008-3.6864-4.9152-10.0352-1.4336-14.336 55.5008-67.7888 137.4208-106.496 224.8704-106.496 160.3584 0 290.6112 130.4576 290.6112 290.6112S672.3584 700.416 512 700.416z" fill="#1C1D21" p-id="7483"></path><path d="M311.296 552.3456c-3.4816 0-6.9632-1.8432-8.8064-5.12-23.7568-39.936-36.2496-85.6064-36.2496-132.096 0-64.3072 23.7568-125.952 66.7648-173.6704 3.6864-4.3008 10.24-4.5056 14.5408-0.8192 4.3008 3.6864 4.5056 10.24 0.8192 14.5408-39.7312 44.032-61.44 100.7616-61.44 159.9488 0 42.8032 11.4688 84.992 33.3824 121.6512 2.8672 4.9152 1.2288 11.0592-3.4816 14.1312-2.048 0.8192-3.8912 1.4336-5.5296 1.4336z" fill="#ABD1FF" p-id="7484"></path><path d="M492.3392 129.2288s-115.712 2.4576-185.1392 88.6784c0 0 37.6832 41.1648 85.8112 62.464 0.2048 0 12.288-122.6752 99.328-151.1424zM512 409.8048h-133.9392s-0.2048 95.232 20.2752 148.2752c0 0 68.1984-31.9488 113.664-23.9616v-124.3136zM630.784 280.3712s-58.7776 28.8768-118.784 26.4192V138.24s78.6432-21.2992 118.784 142.1312z" fill="#0ABFB2" p-id="7485"></path><path d="M398.336 557.8752s-59.392 20.2752-80.4864 54.0672c0 0 79.4624 74.1376 166.2976 76.8-0.2048 0-67.7888-32.1536-85.8112-130.8672z" fill="#0ABFB2" p-id="7486"></path><path d="M512 700.416c-75.3664 0-146.8416-28.672-201.3184-80.896-2.048-1.8432-3.072-4.5056-3.072-7.3728s1.2288-5.5296 3.072-7.3728c54.4768-52.224 125.952-80.896 201.3184-80.896s146.8416 28.672 201.3184 80.896c2.048 1.8432 3.072 4.5056 3.072 7.3728s-1.2288 5.5296-3.072 7.3728C658.8416 671.744 587.3664 700.416 512 700.416z m-179.2-88.4736c49.5616 43.8272 112.64 67.9936 179.2 67.9936s129.6384-23.9616 179.2-67.9936c-49.5616-43.8272-112.64-67.9936-179.2-67.9936s-129.6384 24.1664-179.2 67.9936z" fill="#1C1D21" p-id="7487"></path><path d="M512 700.416c-5.7344 0-10.24-4.5056-10.24-10.24V129.2288c0-5.7344 4.5056-10.24 10.24-10.24s10.24 4.5056 10.24 10.24V690.176c0 5.7344-4.5056 10.24-10.24 10.24z" fill="#1C1D21" p-id="7488"></path><path d="M792.3712 420.0448H231.6288c-5.7344 0-10.24-4.5056-10.24-10.24s4.5056-10.24 10.24-10.24H792.576c5.7344 0 10.24 4.5056 10.24 10.24s-4.7104 10.24-10.4448 10.24z" fill="#1C1D21" p-id="7489"></path><path d="M345.2928 253.5424c-2.4576 0-5.12-1.024-6.9632-2.8672-4.096-3.8912-4.3008-10.4448-0.4096-14.5408 7.9872-8.3968 16.5888-16.1792 25.3952-23.552 4.3008-3.4816 10.8544-2.8672 14.336 1.6384 3.4816 4.5056 2.8672 10.8544-1.6384 14.336-8.192 6.7584-16.1792 13.9264-23.552 21.7088-1.8432 2.2528-4.5056 3.2768-7.168 3.2768z" fill="#5AFFDF" p-id="7490"></path><path d="M512 700.416c-39.936 0-76.8-31.3344-103.8336-88.064-26.0096-54.272-40.1408-126.3616-40.1408-202.752s14.336-148.48 40.1408-202.752c27.0336-56.7296 63.8976-88.064 103.8336-88.064s76.8 31.3344 103.8336 88.064c26.0096 54.272 40.1408 126.3616 40.1408 202.752s-14.336 148.48-40.1408 202.752c-27.0336 56.7296-63.8976 88.064-103.8336 88.064z m0-560.9472c-31.5392 0-61.8496 27.0336-85.4016 76.3904-24.576 51.6096-38.2976 120.4224-38.2976 193.9456 0 73.3184 13.5168 142.336 38.2976 193.9456 23.552 49.152 53.8624 76.3904 85.4016 76.3904s61.8496-27.0336 85.4016-76.3904c24.576-51.6096 38.2976-120.4224 38.2976-193.9456 0-73.3184-13.5168-142.336-38.2976-193.9456-23.552-49.3568-53.8624-76.3904-85.4016-76.3904z" fill="#1C1D21" p-id="7491"></path><path d="M512 317.0304c-80.0768 0-157.4912-33.5872-212.1728-91.9552-3.6864-3.8912-3.6864-10.0352 0-13.9264 54.6816-58.5728 132.096-91.9552 212.1728-91.9552s157.4912 33.5872 212.1728 91.9552c3.6864 3.8912 3.6864 10.0352 0 13.9264-54.6816 58.368-132.096 91.9552-212.1728 91.9552z m-190.464-98.9184c50.9952 50.7904 118.1696 78.4384 190.464 78.4384s139.4688-27.8528 190.464-78.4384c-50.9952-50.7904-118.1696-78.4384-190.464-78.4384s-139.4688 27.648-190.464 78.4384z" fill="#1C1D21" p-id="7492"></path><path d="M533.504 292.6592L512 314.1632l-21.504-21.504c-14.7456-14.7456-34.816-23.1424-55.7056-23.1424-43.6224 0-78.848 35.2256-78.848 78.848 0 39.5264 16.1792 77.2096 45.056 104.448l111.0016 105.0624 111.0016-105.0624c28.672-27.0336 45.056-64.9216 45.056-104.448 0-43.6224-35.2256-78.848-78.848-78.848-20.8896 0.2048-40.96 8.3968-55.7056 23.1424z" fill="#FF3E63" p-id="7493"></path><path d="M459.3664 329.9328c-2.4576 0-4.7104-0.8192-6.7584-2.4576-1.024-0.8192-2.2528-1.8432-3.4816-2.4576-4.7104-3.072-6.3488-9.216-3.2768-14.1312 3.072-4.7104 9.216-6.3488 14.1312-3.2768 2.048 1.2288 4.096 2.6624 5.9392 4.3008 4.3008 3.6864 4.7104 10.24 1.024 14.5408-1.6384 2.2528-4.5056 3.4816-7.5776 3.4816zM412.672 413.2864c-3.4816 0-6.7584-1.6384-8.6016-4.7104-11.264-18.0224-17.2032-38.912-17.2032-60.0064 0-18.0224 10.0352-34.4064 26.2144-42.8032 5.12-2.6624 11.264-0.6144 13.7216 4.5056s0.6144 11.264-4.5056 13.7216c-9.216 4.7104-14.9504 14.1312-14.9504 24.576 0 17.408 4.9152 34.4064 14.1312 49.152 3.072 4.7104 1.6384 11.0592-3.2768 14.1312-1.8432 1.024-3.6864 1.4336-5.5296 1.4336z" fill="#FFAEC3" p-id="7494"></path><path d="M512 568.1152c-2.4576 0-5.12-1.024-6.9632-2.8672l-111.0016-105.0624c-30.5152-28.8768-48.128-69.632-48.128-111.8208 0-49.152 39.936-89.088 89.088-89.088 23.7568 0 46.08 9.216 63.0784 26.0096l14.1312 14.1312 14.1312-14.1312c16.7936-16.7936 39.1168-26.0096 63.0784-26.0096 49.152 0 89.088 39.936 89.088 89.088 0 42.1888-17.6128 82.944-48.128 111.8208L518.9632 565.248c-1.8432 2.048-4.5056 2.8672-6.9632 2.8672z m-77.2096-288.1536c-37.888 0-68.608 30.72-68.608 68.608 0 36.4544 15.1552 71.8848 41.7792 96.8704l104.0384 98.304 104.0384-98.304c26.624-24.9856 41.7792-60.416 41.7792-96.8704 0-37.888-30.72-68.608-68.608-68.608-18.432 0-35.6352 7.168-48.5376 20.0704L519.168 321.536c-4.096 4.096-10.4448 4.096-14.5408 0L483.328 300.032c-12.9024-12.9024-30.1056-20.0704-48.5376-20.0704z m98.7136 12.6976z" fill="#1C1D21" p-id="7495"></path><path d="M552.3456 397.1072h-21.504v-21.504c0-10.4448-8.3968-18.8416-18.8416-18.8416s-18.8416 8.3968-18.8416 18.8416v21.504h-21.504c-10.4448 0-18.8416 8.3968-18.8416 18.8416s8.3968 18.8416 18.8416 18.8416h21.504v21.504c0 10.4448 8.3968 18.8416 18.8416 18.8416s18.8416-8.3968 18.8416-18.8416v-21.504h21.504c10.4448 0 18.8416-8.3968 18.8416-18.8416s-8.3968-18.8416-18.8416-18.8416z" fill="#FFFFFF" p-id="7496"></path><path d="M512 485.376c-15.9744 0-29.0816-13.1072-29.0816-29.0816v-11.264h-11.264c-15.9744 0-29.0816-13.1072-29.0816-29.0816 0-15.9744 13.1072-29.0816 29.0816-29.0816h11.264v-11.264c0-15.9744 13.1072-29.0816 29.0816-29.0816s29.0816 13.1072 29.0816 29.0816v11.264h11.264c15.9744 0 29.0816 13.1072 29.0816 29.0816 0 15.9744-13.1072 29.0816-29.0816 29.0816h-11.264v11.264c0 15.9744-13.1072 29.0816-29.0816 29.0816z m-40.3456-78.0288c-4.7104 0-8.6016 3.8912-8.6016 8.6016 0 4.7104 3.8912 8.6016 8.6016 8.6016h21.504c5.7344 0 10.24 4.5056 10.24 10.24v21.504c0 4.7104 3.8912 8.6016 8.6016 8.6016s8.6016-3.8912 8.6016-8.6016v-21.504c0-5.7344 4.5056-10.24 10.24-10.24h21.504c4.7104 0 8.6016-3.8912 8.6016-8.6016 0-4.7104-3.8912-8.6016-8.6016-8.6016h-21.504c-5.7344 0-10.24-4.5056-10.24-10.24v-21.504c0-4.7104-3.8912-8.6016-8.6016-8.6016s-8.6016 3.8912-8.6016 8.6016v21.504c0 5.7344-4.5056 10.24-10.24 10.24h-21.504zM512 86.016c-5.7344 0-10.24-4.5056-10.24-10.24v-16.384c0-5.7344 4.5056-10.24 10.24-10.24s10.24 4.5056 10.24 10.24v16.384c0 5.7344-4.5056 10.24-10.24 10.24zM748.1344 183.9104c-2.6624 0-5.3248-1.024-7.168-3.072-4.096-4.096-4.096-10.4448 0-14.5408l11.6736-11.6736c4.096-4.096 10.4448-4.096 14.5408 0s4.096 10.4448 0 14.5408l-11.6736 11.6736c-2.048 2.048-4.7104 3.072-7.3728 3.072zM862.4128 420.0448h-16.384c-5.7344 0-10.24-4.5056-10.24-10.24s4.5056-10.24 10.24-10.24h16.384c5.7344 0 10.24 4.5056 10.24 10.24s-4.7104 10.24-10.24 10.24zM177.9712 420.0448h-16.384c-5.7344 0-10.24-4.5056-10.24-10.24s4.5056-10.24 10.24-10.24h16.384c5.7344 0 10.24 4.5056 10.24 10.24s-4.5056 10.24-10.24 10.24zM275.8656 183.9104c-2.6624 0-5.3248-1.024-7.168-3.072l-11.6736-11.6736c-4.096-4.096-4.096-10.4448 0-14.5408s10.4448-4.096 14.5408 0l11.6736 11.6736c4.096 4.096 4.096 10.4448 0 14.5408-2.048 2.048-4.7104 3.072-7.3728 3.072z" fill="#1C1D21" p-id="7497"></path></svg>